<?xml version="1.0" standalone="no"?><!DOCTYPE svg PUBLIC "-//W3C//DTD SVG 1.1//EN" "http://www.w3.org/Graphics/SVG/1.1/DTD/svg11.dtd"><svg t="1662180846254" class="icon" viewBox="0 0 1024 1024" version="1.1" xmlns="http://www.w3.org/2000/svg" p-id="1745" xmlns:xlink="http://www.w3.org/1999/xlink" width="200" height="200"><path d="M992 928H32c-19.2 0-32-12.8-32-32V128c0-19.2 12.8-32 32-32h960c19.2 0 32 12.8 32 32v768c0 19.2-12.8 32-32 32zM64 864h896v-704H64v704z" fill="#14ADC4" p-id="1746"></path><path d="M294.4 499.2c6.4 0 6.4-6.4 6.4-12.8 12.8-12.8 19.2-25.6 19.2-44.8 0-19.2-6.4-38.4-25.6-51.2-19.2-12.8-38.4-19.2-64-19.2H140.8v281.6h89.6c25.6 0 51.2-6.4 70.4-25.6 19.2-19.2 32-38.4 32-64 0-19.2-6.4-38.4-19.2-51.2-6.4-6.4-12.8-6.4-19.2-12.8z m-51.2-32c-6.4 6.4-12.8 12.8-25.6 12.8h-12.8v-51.2h19.2c32 0 32 12.8 32 19.2 0 12.8-6.4 19.2-12.8 19.2z m-38.4 70.4h19.2c44.8 0 44.8 19.2 44.8 25.6-6.4 12.8-6.4 19.2-12.8 25.6-6.4 0-12.8 6.4-25.6 6.4h-25.6v-57.6zM371.2 428.8H448v224h64V428.8h70.4v-57.6H371.2zM819.2 371.2v172.8l-108.8-172.8h-64v281.6h64V480l108.8 172.8h64V371.2z" fill="#14ADC4" p-id="1747"></path></svg>