<?xml version="1.0" standalone="no"?><!DOCTYPE svg PUBLIC "-//W3C//DTD SVG 1.1//EN" "http://www.w3.org/Graphics/SVG/1.1/DTD/svg11.dtd"><svg t="1662181364344" class="icon" viewBox="0 0 1024 1024" version="1.1" xmlns="http://www.w3.org/2000/svg" p-id="9769" xmlns:xlink="http://www.w3.org/1999/xlink" width="200" height="200"><path d="M1001.951626 1001.951626H22.048374V22.048374h979.903252v979.903252" fill="#FFFFFF" p-id="9770"></path><path d="M1001.951626 1024H22.048374a22.048374 22.048374 0 0 1-22.048374-22.048374V22.048374a22.048374 22.048374 0 0 1 22.048374-22.048374h979.903252a22.048374 22.048374 0 0 1 22.048374 22.048374v979.903252a22.048374 22.048374 0 0 1-22.048374 22.048374zM44.096749 979.903251h935.806502V44.096749H44.096749z" fill="#888888" p-id="9771"></path><path d="M761.036388 22.048374h240.988732v256.643078h-240.988732z" fill="#04BEBD" p-id="9772"></path><path d="M1001.951626 300.739826H22.048374a22.048374 22.048374 0 0 1-22.048374-22.048374V22.048374a22.048374 22.048374 0 0 1 22.048374-22.048374h979.903252a22.048374 22.048374 0 0 1 22.048374 22.048374v256.643078a22.048374 22.048374 0 0 1-22.048374 22.048374zM44.096749 256.643078h935.806502V44.096749H44.096749z" fill="#888888" p-id="9773"></path><path d="M869.146917 187.117204l50.711261-52.034164h-101.422522l50.711261 52.034164z" fill="#FFFFFF" p-id="9774"></path><path d="M144.269863 379.011555h740.678389v104.141822H144.269863zM327.27137 584.575899h557.603388v104.141822H327.27137zM327.27137 790.140243h557.603388v104.141821H327.27137z" fill="#CCCCCC" p-id="9775"></path><path d="M738.988014 22.048374v231.948899" fill="#FFFFFF" p-id="9776"></path><path d="M738.988014 276.045647a22.048374 22.048374 0 0 1-22.048374-22.048374V22.048374a22.048374 22.048374 0 0 1 44.096748 0v231.948899a22.048374 22.048374 0 0 1-22.048374 22.048374z" fill="#888888" p-id="9777"></path></svg>