<?xml version="1.0" standalone="no"?><!DOCTYPE svg PUBLIC "-//W3C//DTD SVG 1.1//EN" "http://www.w3.org/Graphics/SVG/1.1/DTD/svg11.dtd"><svg t="1646300670854" class="icon" viewBox="0 0 1024 1024" version="1.1" xmlns="http://www.w3.org/2000/svg" p-id="3609" xmlns:xlink="http://www.w3.org/1999/xlink" width="200" height="200"><defs><style type="text/css"></style></defs><path d="M342 472H242c-71.68 0-130-58.32-130-130V242c0-71.68 58.32-130 130-130h100c71.68 0 130 58.32 130 130v100c0 71.68-58.32 130-130 130zM242 172c-38.59 0-70 31.41-70 70v100c0 38.59 31.41 70 70 70h100c38.59 0 70-31.41 70-70V242c0-38.59-31.41-70-70-70H242zM732 471.91c-46.09 0-92.19-17.55-127.29-52.64-70.18-70.18-70.18-184.38 0-254.55 70.2-70.18 184.38-70.18 254.57 0 70.18 70.18 70.18 184.38 0 254.55-35.09 35.09-81.19 52.64-127.28 52.64z m-84.86-95.06c46.8 46.78 122.93 46.78 169.73 0 46.78-46.79 46.78-122.92 0-169.71-46.84-46.8-122.97-46.78-169.73 0-46.78 46.79-46.78 122.93 0 169.71zM342 912H242c-71.68 0-130-58.32-130-130V682c0-71.68 58.32-130 130-130h100c71.68 0 130 58.32 130 130v100c0 71.68-58.32 130-130 130zM242 612c-38.59 0-70 31.41-70 70v100c0 38.59 31.41 70 70 70h100c38.59 0 70-31.41 70-70V682c0-38.59-31.41-70-70-70H242zM782 912H682c-71.68 0-130-58.32-130-130V682c0-71.68 58.32-130 130-130h100c71.68 0 130 58.32 130 130v100c0 71.68-58.32 130-130 130zM682 612c-38.59 0-70 31.41-70 70v100c0 38.59 31.41 70 70 70h100c38.59 0 70-31.41 70-70V682c0-38.59-31.41-70-70-70H682z" p-id="3610"></path></svg>