<?xml version="1.0" standalone="no"?><!DOCTYPE svg PUBLIC "-//W3C//DTD SVG 1.1//EN" "http://www.w3.org/Graphics/SVG/1.1/DTD/svg11.dtd"><svg t="1662180890506" class="icon" viewBox="0 0 1024 1024" version="1.1" xmlns="http://www.w3.org/2000/svg" p-id="2673" xmlns:xlink="http://www.w3.org/1999/xlink" width="200" height="200"><path d="M830.6 698.9H193.4c-43.6 0-65.4 21.8-65.4 59.9v59.9c0 43.6 21.8 59.9 65.4 59.9h637.3c43.6 0 65.4-21.8 65.4-59.9v-54.5c-5.6-43.5-21.9-65.3-65.5-65.3zM830.6 137.9H193.4c-43.6 0-65.4 21.8-65.4 59.9v59.9c0 43.6 21.8 59.9 65.4 59.9h637.3c43.6 0 65.4-21.8 65.4-59.9v-59.9c-5.6-38.1-21.9-59.9-65.5-59.9zM830.6 421.1H193.4c-43.6 0-65.4 21.8-65.4 59.9v59.9c0 43.6 21.8 59.9 65.4 59.9h637.3c43.6 0 65.4-21.8 65.4-59.9V481c-5.6-43.6-21.9-59.9-65.5-59.9z" fill="#00AA88" p-id="2674"></path></svg>