<?xml version="1.0" standalone="no"?><!DOCTYPE svg PUBLIC "-//W3C//DTD SVG 1.1//EN" "http://www.w3.org/Graphics/SVG/1.1/DTD/svg11.dtd"><svg t="1646301025860" class="icon" viewBox="0 0 1024 1024" version="1.1" xmlns="http://www.w3.org/2000/svg" p-id="4216" xmlns:xlink="http://www.w3.org/1999/xlink" width="200" height="200"><defs><style type="text/css"></style></defs><path d="M912 542H512c-16.57 0-30-13.43-30-30V112c0-16.57 13.43-30 30-30 237.11 0 430 192.9 430 430 0 16.57-13.44 30-30 30z m-370-60h338.79C866.28 301.85 722.14 157.72 542 143.2V482z" p-id="4217"></path><path d="M512 942C274.9 942 82 749.11 82 512c0-188.83 120.97-353.69 301.01-410.25 15.84-4.91 32.67 3.83 37.62 19.63 4.96 15.81-3.83 32.65-19.63 37.62-154.92 48.65-259 190.52-259 353 0 204.02 165.98 370 370 370 162.48 0 304.36-104.08 353.03-258.98 4.94-15.8 21.72-24.71 37.6-19.63 15.82 4.96 24.61 21.8 19.63 37.6C865.69 821.04 700.83 942 512 942z" p-id="4218"></path></svg>