<?xml version="1.0" standalone="no"?><!DOCTYPE svg PUBLIC "-//W3C//DTD SVG 1.1//EN" "http://www.w3.org/Graphics/SVG/1.1/DTD/svg11.dtd"><svg t="1662003723316" class="icon" viewBox="0 0 1024 1024" version="1.1" xmlns="http://www.w3.org/2000/svg" p-id="990" xmlns:xlink="http://www.w3.org/1999/xlink" width="200" height="200"><path d="M568.827317 85.484539v96.979931l-113.75945-5.687973V85.484539l56.879725-56.879725 56.879725 56.879725zM568.827317 624.135534V995.560138h-113.75945V616.741169l113.75945 7.394365zM298.648623 240.766188l426.597937 20.192302a14.50433 14.50433 0 0 1 13.651134 14.219931V398.323026a14.219931 14.219931 0 0 1-13.651134 14.219931l-426.597937 19.054708a14.50433 14.50433 0 0 1-14.788728-14.219931V256.123713A14.219931 14.219931 0 0 1 298.648623 240.766188z" fill="#FFC824" p-id="991"></path><path d="M438.288348 307.599864l11.944742-11.660343A28.439862 28.439862 0 0 0 409.848485 256.123713l-60.292508 59.723712a32.705842 32.705842 0 0 0-5.972371 9.385154 28.439862 28.439862 0 0 0 0 21.614296 26.449072 26.449072 0 0 0 5.972371 9.385154l60.292508 60.292509a28.439862 28.439862 0 0 0 20.192303 8.24756 28.439862 28.439862 0 0 0 20.192302-8.24756 28.439862 28.439862 0 0 0 0-40.100206l-11.944742-11.944743h215.858556a28.439862 28.439862 0 0 0 0-56.879725z" fill="#6B400D" p-id="992"></path><path d="M811.988141 165.400552l-214.720962-10.23835V85.484539a28.439862 28.439862 0 0 0-8.24756-20.192303l-56.879725-56.879725a28.439862 28.439862 0 0 0-40.384605 0l-56.879725 56.879725A28.439862 28.439862 0 0 0 426.628004 85.484539v61.714501l-211.876975-10.23835a28.439862 28.439862 0 0 0-21.045498 7.963161 28.439862 28.439862 0 0 0-8.816358 20.476701v341.27835a28.439862 28.439862 0 0 0 8.816358 20.761099 28.439862 28.439862 0 0 0 19.623505 7.678763h1.421993l56.879725-2.559587v73.659243a28.439862 28.439862 0 0 0 26.449072 28.439863l129.970171 8.531959V967.120275h-56.879725v-85.319587a28.439862 28.439862 0 0 0-56.879724 0v85.319587h-56.879725a28.439862 28.439862 0 0 0 0 56.879725h511.917524a28.439862 28.439862 0 0 0 0-56.879725h-28.439862v-30.715051a28.439862 28.439862 0 0 0-56.879725 0V967.120275h-85.319588V654.281788l125.988591 8.531959H725.24656a28.439862 28.439862 0 0 0 19.339107-7.678763 28.439862 28.439862 0 0 0 9.100756-20.7611v-125.135395l58.301718-2.843986a28.439862 28.439862 0 0 0 27.017869-28.439862v-284.398625a28.439862 28.439862 0 0 0-27.017869-28.155464zM483.507729 97.144882l28.439863-28.439862 28.439862 28.439862v56.879725l-56.879725-2.843986z m56.879725 869.975393h-56.879725V647.171822l28.439863 1.706392 28.439862 1.99079zM696.806698 604.22763L571.102506 597.402063 526.167523 592.851685l-199.079037-13.366735v-49.76976L696.806698 512.082476z m85.319587-153.00646L725.24656 455.202751l-416.359586 19.907903-67.118076 1.706392v-281.554638l292.077388 13.935532 33.559038 1.706392h1.706391l213.01457 10.238351z" fill="#6B400D" p-id="993"></path></svg>