<?xml version="1.0" standalone="no"?><!DOCTYPE svg PUBLIC "-//W3C//DTD SVG 1.1//EN" "http://www.w3.org/Graphics/SVG/1.1/DTD/svg11.dtd"><svg t="1662003764758" class="icon" viewBox="0 0 1024 1024" version="1.1" xmlns="http://www.w3.org/2000/svg" p-id="1273" xmlns:xlink="http://www.w3.org/1999/xlink" width="200" height="200"><path d="M868.864 155.136l-301.696 784.426667-120.704-362.026667z" p-id="1274"></path><path d="M567.168 981.76c-18.090667 0-36.224-12.032-42.24-30.122667l-111.616-340.906666-343.936-114.688c-18.133333-6.016-27.178667-21.12-27.178667-39.210667 0-18.090667 9.045333-33.194667 27.178667-39.253333l784.384-301.653334c18.133333-6.058667 33.194667-2.986667 45.269333 9.045334 12.074667 12.074667 18.090667 30.165333 9.045334 45.226666l-301.653334 784.426667c-6.058667 18.133333-21.162667 27.178667-39.253333 27.178667zM208.128 453.845333l250.453333 81.493334c12.032 6.016 21.077333 15.061333 27.136 27.136l81.450667 250.410666 226.261333-582.272-585.301333 223.232z" p-id="1275"></path></svg>