<?xml version="1.0" standalone="no"?><!DOCTYPE svg PUBLIC "-//W3C//DTD SVG 1.1//EN" "http://www.w3.org/Graphics/SVG/1.1/DTD/svg11.dtd"><svg t="1662180852948" class="icon" viewBox="0 0 1026 1024" version="1.1" xmlns="http://www.w3.org/2000/svg" p-id="1900" xmlns:xlink="http://www.w3.org/1999/xlink" width="200.390625" height="200"><path d="M841.05088 1024H610.65088c-12.8 0-32-12.8-32-32v-326.4H450.65088v326.4c0 19.2-19.2 32-32 32H188.25088c-19.2 0-32-12.8-32-32V537.6H34.65088C21.85088 537.6 9.05088 524.8 2.65088 512s0-25.6 6.4-32L489.05088 6.4c12.8-6.4 38.4-6.4 51.2 0l480 473.6c6.4 6.4 6.4 25.6 6.4 32s-19.2 19.2-32 19.2h-121.6v454.4c0 25.6-12.8 38.4-32 38.4zM642.65088 960h166.4V505.6c0-19.2 12.8-32 32-32h76.8L514.65088 76.8 111.45088 473.6h76.8c19.2 0 32 12.8 32 32V960H386.65088V633.6c0-19.2 12.8-32 32-32h198.4c19.2 0 32 12.8 32 32V960z" fill="#14ADC4" p-id="1901"></path></svg>