<?xml version="1.0" standalone="no"?><!DOCTYPE svg PUBLIC "-//W3C//DTD SVG 1.1//EN" "http://www.w3.org/Graphics/SVG/1.1/DTD/svg11.dtd"><svg t="1646300583782" class="icon" viewBox="0 0 1024 1024" version="1.1" xmlns="http://www.w3.org/2000/svg" p-id="3458" xmlns:xlink="http://www.w3.org/1999/xlink" width="200" height="200"><defs><style type="text/css"></style></defs><path d="M812 941.92H212c-71.68 0-130-58.75-130-130.96V440.01c0-40.95 19.39-80.08 51.89-104.68l300-227.14c46.02-34.81 110.25-34.81 156.21 0l300 227.14c32.5 24.6 51.89 63.73 51.89 104.68v370.96c0.01 72.2-58.31 130.95-129.99 130.95zM470.11 156.03l-300 227.14C152.51 396.5 142 417.75 142 440.02v370.96c0 39.12 31.41 70.96 70 70.96h600c38.59 0 70-31.84 70-70.96V440.01c0-22.27-10.51-43.52-28.11-56.85l-300-227.14c-24.64-18.67-59.09-18.67-83.78 0.01z" p-id="3459"></path><path d="M637 941.92H387c-16.57 0-30-13.44-30-30v-200c0-85.47 69.53-155 155-155s155 69.53 155 155v200c0 16.57-13.44 30-30 30z m-220-60h190v-170c0-52.38-42.62-95-95-95s-95 42.62-95 95v170z" p-id="3460"></path></svg>