<?xml version="1.0" standalone="no"?><!DOCTYPE svg PUBLIC "-//W3C//DTD SVG 1.1//EN" "http://www.w3.org/Graphics/SVG/1.1/DTD/svg11.dtd"><svg class="icon" width="200px" height="200.00px" viewBox="0 0 1024 1024" version="1.1" xmlns="http://www.w3.org/2000/svg"><path d="M550.1952 572.02688C444.34432 491.52 397.4144 346.80832 409.3952 137.8816c-3.0208-37.9904-46.76608 1.4336-131.2256 118.28224L168.3968 132.0448a18.432 18.432 0 0 0-32.18432 13.63968C159.9488 450.6624 283.62752 636.12928 507.24864 702.08512c236.41088 69.7344 250.7264 26.37824 42.93632-130.048z" fill="#FECD34" /><path d="M585.1648 780.55424l-97.60768-12.4416a30.72 30.72 0 0 1-17.94048-52.10112l69.25312-69.89824a30.72 30.72 0 0 0 8.36608-27.3408l-18.3296-96.68608a30.72 30.72 0 0 1 44.00128-33.15712l87.88992 44.25728a30.72 30.72 0 0 0 28.57984-0.49152l86.29248-47.3088a30.72 30.72 0 0 1 45.12768 31.60064l-14.94016 97.26976a30.72 30.72 0 0 0 9.3184 27.0336l71.64928 67.44064a30.72 30.72 0 0 1-16.10752 52.69504l-97.1264 15.84128a30.72 30.72 0 0 0-22.8352 17.2032l-41.99424 88.9856a30.72 30.72 0 0 1-55.0912 0.9728l-45.08672-87.47008a30.72 30.72 0 0 0-23.41888-16.40448z" fill="#FC9A24" /><path d="M836.25984 432.91648m-25.6 0a25.6 25.6 0 1 0 51.2 0 25.6 25.6 0 1 0-51.2 0Z" fill="#FC9A24" /><path d="M744.09984 248.59648m-25.6 0a25.6 25.6 0 1 0 51.2 0 25.6 25.6 0 1 0-51.2 0Z" fill="#FC9A24" /><path d="M657.05984 315.15648a20.48 20.48 0 0 1 20.48 20.48v30.72h30.72a20.48 20.48 0 1 1 0 40.96h-30.72v30.72a20.48 20.48 0 1 1-40.96 0v-30.72h-30.72a20.48 20.48 0 1 1 0-40.96h30.72v-30.72a20.48 20.48 0 0 1 20.48-20.48zM349.85984 714.51648a20.48 20.48 0 0 1 20.48 20.48v30.72h30.72a20.48 20.48 0 1 1 0 40.96h-30.72v30.72a20.48 20.48 0 1 1-40.96 0v-30.72h-30.72a20.48 20.48 0 1 1 0-40.96h30.72v-30.72a20.48 20.48 0 0 1 20.48-20.48z" fill="#FC9A24" /></svg>