<?xml version="1.0" standalone="no"?><!DOCTYPE svg PUBLIC "-//W3C//DTD SVG 1.1//EN" "http://www.w3.org/Graphics/SVG/1.1/DTD/svg11.dtd"><svg class="icon" width="200px" height="200.00px" viewBox="0 0 1024 1024" version="1.1" xmlns="http://www.w3.org/2000/svg"><path d="M435.712 212.48a10.9568 10.9568 0 0 1 18.8416-1.3312l1.9456 2.7648c5.8368 7.3728 11.0592 14.9504 15.872 22.528 23.04 53.9648 50.4832 96.4608 82.7392 148.48 5.12 8.8064 10.24 17.8176 15.1552 26.9312l11.8784 20.48a10.8544 10.8544 0 0 0 8.4992 5.4272L614.4 440.32h24.064l23.7568 0.8192c59.0848 4.1984 103.5264 0 154.624 19.1488 1.6384 0.6144 3.1744 1.536 4.7104 2.2528a18.1248 18.1248 0 0 1 6.0416 27.8528c-40.96 48.9472-83.968 90.7264-120.832 141.7216l-16.0768 17.3056-16.0768 17.408a10.8544 10.8544 0 0 0-2.6624 10.24 249.0368 249.0368 0 0 1 11.5712 25.1904c22.7328 68.096 48.3328 144.0768 41.5744 221.3888a19.0464 19.0464 0 0 1-25.6 15.9744l-5.5296-2.1504c-64.8192-25.2928-122.88-73.4208-188.0064-99.5328l-22.016-10.24a10.8544 10.8544 0 0 0-10.24 0.6144c-7.168 4.3008-14.5408 8.6016-21.7088 13.312C398.2336 877.568 327.68 948.4288 254.8736 962.56c-10.24 1.9456-14.2336-7.0656-16.7936-17.408a161.6896 161.6896 0 0 1-1.536-38.912c0-8.4992 1.1264-16.9984 2.048-25.4976 5.5296-51.2 24.1664-110.8992 28.9792-163.84l2.8672-23.9616a10.752 10.752 0 0 0-3.6864-9.4208c-3.7888-3.2768-10.8544-8.4992-18.8416-15.1552h-0.6144c-36.7616-27.2384-74.3424-57.5488-108.7488-86.2208l-21.8112-20.48c-9.4208-9.3184-18.8416-19.3536-30.72-31.8464A17.3056 17.3056 0 0 1 94.9248 501.76c66.4576-16.9984 117.5552-23.1424 182.9888-34.5088l23.9616-5.12q11.8784-2.3552 23.6544-4.4032a10.9568 10.9568 0 0 0 7.8848-6.4512c1.9456-4.5056 5.0176-11.776 8.8064-21.0944a11.1616 11.1616 0 0 0 0.6144-2.048c1.8432-9.1136 9.728-22.7328 12.3904-31.6416a1665.6384 1665.6384 0 0 1 75.9808-174.7968zM801.1776 63.3856a4.3008 4.3008 0 0 1 7.3728 0l0.6144 1.1264c1.8432 3.1744 3.584 6.3488 5.0176 9.5232a418.2016 418.2016 0 0 0 24.7808 61.44c1.536 3.6864 3.072 7.4752 4.5056 11.264l3.584 8.704a4.3008 4.3008 0 0 0 3.072 2.56l9.1136 1.9456 9.3184 1.3312 9.216 1.536c22.8352 4.608 40.3456 4.9152 59.2896 15.1552l1.7408 1.1264a7.168 7.168 0 0 1 0.9216 11.1616c-18.3296 17.1008-37.2736 30.72-54.1696 49.2544l-7.168 5.9392-7.168 5.9392A4.3008 4.3008 0 0 0 870.4 256a97.6896 97.6896 0 0 1 3.2768 10.24c5.4272 27.648 11.5712 58.4704 5.12 88.2688a7.4752 7.4752 0 0 1-10.752 5.0176l-2.048-1.1264c-23.9616-13.1072-44.3392-34.7136-68.1984-48.0256l-8.0896-5.0176a4.3008 4.3008 0 0 0-3.9936 0c-3.072 1.3312-6.144 2.6624-9.1136 4.096-22.8352 11.264-53.6576 35.328-82.944 37.1712-4.1984 0-5.2224-3.4816-5.7344-7.5776a63.488 63.488 0 0 1 1.3312-15.2576c0.6144-3.2768 1.3312-6.5536 2.048-10.24 4.7104-19.5584 14.9504-41.984 19.456-62.3616l2.2528-9.216a4.1984 4.1984 0 0 0-0.9216-3.8912c-1.3312-1.4336-3.7888-3.8912-6.5536-6.8608-13.0048-12.3904-26.112-26.112-38.0928-39.0144l-7.4752-8.8064c-3.1744-4.096-6.3488-8.4992-10.24-13.9264a6.7584 6.7584 0 0 1 4.7104-10.24c26.7264-3.3792 46.8992-3.1744 73.0112-4.4032l9.6256-0.8192 9.4208-0.512a4.3008 4.3008 0 0 0 3.3792-2.1504l4.5056-7.7824v-0.8192c1.1264-3.4816 4.9152-8.3968 6.4512-11.6736A655.36 655.36 0 0 1 798.72 66.6624z" fill="#FAB414" /><path d="M378.88 572.2112v39.7312a15.36 15.36 0 0 0 30.72 0v-39.7312a15.36 15.36 0 0 0-30.72 0zM512 565.9648a340.8896 340.8896 0 0 1 9.3184 38.1952 15.4624 15.4624 0 0 0 18.944 10.24 15.6672 15.6672 0 0 0 10.24-18.944 340.8896 340.8896 0 0 0-9.6256-38.4c-5.9392-18.8416-35.5328-10.752-29.5936 8.192zM435.2 674.6112a65.1264 65.1264 0 0 0 34.304 28.672c20.48 6.3488 28.5696-18.944 33.8944-33.28s-17.2032-19.968-22.2208-6.144a102.4 102.4 0 0 1-6.2464 13.9264l-2.4576 4.3008 3.3792-1.024-5.8368-3.2768a40.1408 40.1408 0 0 1-14.9504-14.7456 11.5712 11.5712 0 0 0-19.8656 11.6736z" fill="#3A3635" /></svg>