<?xml version="1.0" standalone="no"?><!DOCTYPE svg PUBLIC "-//W3C//DTD SVG 1.1//EN" "http://www.w3.org/Graphics/SVG/1.1/DTD/svg11.dtd"><svg class="icon" width="200px" height="185.84px" viewBox="0 0 1102 1024" version="1.1" xmlns="http://www.w3.org/2000/svg"><path fill="#d81e06" d="M533.07 856.418l-258.284 135.76a39.385 39.385 0 0 1-57.147-41.512l49.31-287.587a39.385 39.385 0 0 0-11.303-34.855L46.67 424.527a39.385 39.385 0 0 1 21.819-67.19l288.768-41.945a39.385 39.385 0 0 0 29.656-21.543L516.096 32.177a39.385 39.385 0 0 1 70.617 0L715.855 293.85a39.385 39.385 0 0 0 29.656 21.543l288.768 41.945a39.385 39.385 0 0 1 21.82 67.19L847.123 628.224a39.385 39.385 0 0 0-11.304 34.855l49.31 287.587a39.385 39.385 0 0 1-57.108 41.511L569.698 856.418a39.385 39.385 0 0 0-36.627 0z"  /></svg>