<?xml version="1.0" standalone="no"?><!DOCTYPE svg PUBLIC "-//W3C//DTD SVG 1.1//EN" "http://www.w3.org/Graphics/SVG/1.1/DTD/svg11.dtd"><svg class="icon" width="200px" height="200.00px" viewBox="0 0 1024 1024" version="1.1" xmlns="http://www.w3.org/2000/svg"><path fill="#d81e06" d="M510.293333 384.568889c7.964444-3.413333 13.084444-11.377778 13.084445-20.48s-5.12-17.066667-13.084445-20.48l-85.333333-39.822222-39.822222-85.333334C381.155556 209.92 373.191111 204.8 364.088889 204.8s-17.066667 5.12-20.48 13.084444l-39.822222 85.333334-85.333334 39.822222C209.92 347.022222 204.8 354.986667 204.8 364.088889s5.12 17.066667 13.084444 20.48l85.333334 39.822222 39.822222 85.333333C347.022222 518.257778 354.986667 523.377778 364.088889 523.377778s17.066667-5.12 20.48-13.084445l39.822222-85.333333 85.902222-40.391111zM386.844444 397.653333l-22.755555 48.924445-22.755556-48.924445c-2.275556-5.12-6.257778-8.533333-10.808889-10.808889l-48.924444-22.755555 48.924444-22.755556c5.12-2.275556 8.533333-6.257778 10.808889-10.808889l22.755556-48.924444 22.755555 48.924444c2.275556 5.12 6.257778 8.533333 10.808889 10.808889l48.924445 22.755556-48.924445 22.755555c-4.551111 2.275556-8.533333 6.257778-10.808889 10.808889zM647.964444 662.755556L580.266667 625.777778l-36.408889-67.697778c-3.982222-7.395556-11.377778-11.946667-19.911111-11.946667s-15.928889 4.551111-19.911111 11.946667L466.488889 625.777778l-67.697778 36.408889c-7.395556 3.982222-11.946667 11.377778-11.946667 19.911111s4.551111 15.928889 11.946667 19.911111L466.488889 739.555556l36.408889 67.697777c3.982222 7.395556 11.946667 11.946667 19.911111 11.946667s15.928889-4.551111 19.911111-11.946667L580.266667 739.555556l67.697777-36.408889c7.395556-3.982222 11.946667-11.377778 11.946667-19.911111s-4.551111-16.497778-11.946667-20.48z m-95.573333 39.822222c-3.982222 2.275556-7.395556 5.12-9.102222 9.102222l-19.911111 36.977778-19.911111-36.977778c-2.275556-3.982222-5.12-7.395556-9.102223-9.102222l-36.977777-19.911111 36.977777-19.911111c3.982222-2.275556 7.395556-5.12 9.102223-9.102223l19.911111-36.977777 19.911111 36.977777c2.275556 3.982222 5.12 7.395556 9.102222 9.102223l36.977778 19.911111-36.977778 19.911111zM807.253333 401.066667l-45.511111-25.031111-25.031111-45.511112c-3.982222-7.395556-11.377778-11.946667-19.911111-11.946666s-15.928889 4.551111-19.911111 11.946666l-25.031111 45.511112-45.511111 25.031111c-7.395556 3.982222-11.946667 11.377778-11.946667 19.911111s4.551111 15.928889 11.946667 19.911111l45.511111 25.031111 25.031111 45.511111c3.982222 7.395556 11.377778 11.946667 19.911111 11.946667s15.928889-4.551111 19.911111-11.946667l25.031111-45.511111 45.511111-25.031111c7.395556-3.982222 11.946667-11.377778 11.946667-19.911111s-4.551111-15.928889-11.946667-19.911111z m-72.817777 28.444444c-3.982222 2.275556-6.826667 5.12-9.102223 9.102222l-8.533333 15.36-8.533333-15.36c-2.275556-3.982222-5.12-6.826667-9.102223-9.102222l-15.36-8.533333 15.36-8.533334c3.982222-2.275556 6.826667-5.12 9.102223-9.102222l8.533333-15.36 8.533333 15.36c2.275556 3.982222 5.12 6.826667 9.102223 9.102222l15.36 8.533334-15.36 8.533333z"  /><path fill="#d81e06" d="M284.444444 637.155556m-22.755555 0a22.755556 22.755556 0 1 0 45.511111 0 22.755556 22.755556 0 1 0-45.511111 0Z"  /><path fill="#d81e06" d="M654.222222 250.311111m-22.755555 0a22.755556 22.755556 0 1 0 45.511111 0 22.755556 22.755556 0 1 0-45.511111 0Z"  /><path fill="#d81e06" d="M768 694.044444m-22.755556 0a22.755556 22.755556 0 1 0 45.511112 0 22.755556 22.755556 0 1 0-45.511112 0Z"  /></svg>