<?xml version="1.0" standalone="no"?><!DOCTYPE svg PUBLIC "-//W3C//DTD SVG 1.1//EN" "http://www.w3.org/Graphics/SVG/1.1/DTD/svg11.dtd"><svg t="1662180879386" class="icon" viewBox="0 0 1024 1024" version="1.1" xmlns="http://www.w3.org/2000/svg" p-id="2364" xmlns:xlink="http://www.w3.org/1999/xlink" width="200" height="200"><path d="M928 1024h-832c-19.2 0-32-12.8-32-32V32c0-19.2 12.8-32 32-32h832c19.2 0 32 12.8 32 32v960c0 19.2-12.8 32-32 32zM128 960h768V64H128v896z" fill="#14ADC4" p-id="2365"></path><path d="M288 288H256c-19.2 0-32-12.8-32-32s12.8-32 32-32h32c19.2 0 32 12.8 32 32s-12.8 32-32 32zM768 288H416c-19.2 0-32-12.8-32-32s12.8-32 32-32H768c19.2 0 32 12.8 32 32s-12.8 32-32 32zM288 544H256c-19.2 0-32-12.8-32-32s12.8-32 32-32h32c19.2 0 32 12.8 32 32s-12.8 32-32 32zM768 544H416c-19.2 0-32-12.8-32-32s12.8-32 32-32H768c19.2 0 32 12.8 32 32s-12.8 32-32 32zM288 800H256c-19.2 0-32-12.8-32-32s12.8-32 32-32h32c19.2 0 32 12.8 32 32s-12.8 32-32 32zM768 800H416c-19.2 0-32-12.8-32-32s12.8-32 32-32H768c19.2 0 32 12.8 32 32s-12.8 32-32 32z" fill="#14ADC4" p-id="2366"></path></svg>