<?xml version="1.0" standalone="no"?><!DOCTYPE svg PUBLIC "-//W3C//DTD SVG 1.1//EN" "http://www.w3.org/Graphics/SVG/1.1/DTD/svg11.dtd"><svg t="1646301082643" class="icon" viewBox="0 0 1024 1024" version="1.1" xmlns="http://www.w3.org/2000/svg" p-id="4529" xmlns:xlink="http://www.w3.org/1999/xlink" width="200" height="200"><defs><style type="text/css"></style></defs><path d="M812 912.34H212c-71.68 0-130-58.32-130-130v-540c0-71.68 58.32-130 130-130h600c71.68 0 130 58.32 130 130v540c0 71.68-58.32 130-130 130z m-600-740c-38.59 0-70 31.41-70 70v540c0 38.59 31.41 70 70 70h600c38.59 0 70-31.41 70-70v-540c0-38.59-31.41-70-70-70H212z" p-id="4530"></path><path d="M302.21 458.18c-7.68 0-15.35-2.93-21.21-8.79l-50.21-50.21c-11.72-11.71-11.72-30.71 0-42.42 11.72-11.72 30.7-11.72 42.42 0l50.21 50.21c11.72 11.71 11.72 30.71 0 42.42a29.91 29.91 0 0 1-21.21 8.79z" p-id="4531"></path><path d="M302.21 458.18c-7.68 0-15.35-2.93-21.21-8.79-11.72-11.71-11.72-30.7 0-42.42L382.46 305.5c11.7-11.72 30.7-11.72 42.42 0 11.72 11.71 11.72 30.7 0 42.42L323.42 449.39c-5.85 5.86-13.54 8.79-21.21 8.79z" p-id="4532"></path><path d="M772 407.44H547.08c-16.57 0-30-13.43-30-30s13.43-30 30-30H772c16.56 0 30 13.43 30 30s-13.44 30-30 30zM772 667.96H547.08c-16.57 0-30-13.44-30-30s13.43-30 30-30H772c16.56 0 30 13.44 30 30s-13.44 30-30 30zM327.84 727.96c-49.63 0-90-40.37-90-90s40.37-90 90-90 90 40.37 90 90-40.37 90-90 90z m0-120c-16.54 0-30 13.46-30 30s13.46 30 30 30 30-13.46 30-30-13.46-30-30-30z" p-id="4533"></path></svg>