<?xml version="1.0" standalone="no"?><!DOCTYPE svg PUBLIC "-//W3C//DTD SVG 1.1//EN" "http://www.w3.org/Graphics/SVG/1.1/DTD/svg11.dtd"><svg t="1662006501665" class="icon" viewBox="0 0 1024 1024" version="1.1" xmlns="http://www.w3.org/2000/svg" p-id="3369" xmlns:xlink="http://www.w3.org/1999/xlink" width="200" height="200"><path d="M609.39 272.38H415.02c-12.68 0-23.99-7.97-28.25-19.92l-47.91-134.25c-3.28-9.19-1.89-19.4 3.73-27.37s14.77-12.72 24.52-12.72h290.2a30.001 30.001 0 0 1 28.25 40.09l-47.91 134.25c-4.27 11.94-15.58 19.92-28.26 19.92z m-173.22-60h152.08l26.5-74.25H409.67l26.5 74.25zM512.21 945.54c-7.45 0-14.91-2.76-20.7-8.29l-209-199.27a29.986 29.986 0 0 1-7.9-30.76l113.62-359.15c3.95-12.47 15.52-20.95 28.6-20.95H607.6c13.08 0 24.66 8.48 28.6 20.95l113.62 359.15c3.46 10.92 0.39 22.86-7.9 30.76l-209 199.27a29.95 29.95 0 0 1-20.71 8.29zM337.45 707.48L512.2 874.1l174.75-166.62-101.33-320.36H438.8L337.45 707.48z" p-id="3370"></path></svg>