<?xml version="1.0" standalone="no"?><!DOCTYPE svg PUBLIC "-//W3C//DTD SVG 1.1//EN" "http://www.w3.org/Graphics/SVG/1.1/DTD/svg11.dtd"><svg t="1646301133898" class="icon" viewBox="0 0 1024 1024" version="1.1" xmlns="http://www.w3.org/2000/svg" p-id="4686" xmlns:xlink="http://www.w3.org/1999/xlink" width="200" height="200"><defs><style type="text/css"></style></defs><path d="M592 942H432c-16.57 0-30-13.44-30-30V782h-30c-16.57 0-30-13.44-30-30V432c0-16.57 13.43-30 30-30h280c16.56 0 30 13.43 30 30v320c0 16.56-13.44 30-30 30h-30v130c0 16.56-13.44 30-30 30z m-130-60h100V752c0-16.56 13.44-30 30-30h30V462H402v260h30c16.57 0 30 13.44 30 30v130zM512 342c-71.68 0-130-58.32-130-130S440.32 82 512 82s130 58.32 130 130-58.32 130-130 130z m0-200c-38.59 0-70 31.41-70 70s31.41 70 70 70 70-31.41 70-70-31.41-70-70-70zM224 367.97c-60.65 0-110-49.35-110-110s49.35-110 110-110 110 49.35 110 110-49.34 110-110 110z m0-160c-27.57 0-50 22.43-50 50s22.43 50 50 50 50-22.43 50-50-22.43-50-50-50zM800.01 367.97c-60.64 0-110-49.35-110-110s49.36-110 110-110 110 49.35 110 110-49.36 110-110 110z m0-160c-27.58 0-50 22.43-50 50s22.42 50 50 50 50-22.43 50-50-22.42-50-50-50zM863.99 847.96h-96c-16.56 0-30-13.44-30-30s13.44-30 30-30h66v-97.99c0-16.56 13.44-30 30-30H882V463.96H768c-16.56 0-30-13.43-30-30s13.44-30 30-30h144c16.56 0 30 13.43 30 30v256.01c0 16.56-13.44 30-30 30h-18.01v97.99c0 16.56-13.44 30-30 30zM256 847.96h-96c-16.57 0-30-13.44-30-30v-97.99h-18c-16.57 0-30-13.44-30-30V433.96c0-16.57 13.43-30 30-30h144c16.57 0 30 13.43 30 30s-13.43 30-30 30H142v196.01h18c16.57 0 30 13.44 30 30v97.99h66c16.57 0 30 13.44 30 30s-13.42 30-30 30z" p-id="4687"></path></svg>