<?xml version="1.0" standalone="no"?><!DOCTYPE svg PUBLIC "-//W3C//DTD SVG 1.1//EN" "http://www.w3.org/Graphics/SVG/1.1/DTD/svg11.dtd"><svg t="1618537062997" class="icon" viewBox="0 0 1024 1024" version="1.1" xmlns="http://www.w3.org/2000/svg" p-id="1714" xmlns:xlink="http://www.w3.org/1999/xlink" width="200" height="200"><defs><style type="text/css"></style></defs><path d="M888.576 311.168l-70.4-145.152A67.157333 67.157333 0 0 0 757.418667 128H260.053333a66.517333 66.517333 0 0 0-61.184 39.338667L130.773333 316.16l-34.517333 76.885333c-13.781333 31.189333-15.146667 66.474667-0.426667 97.28a153.941333 153.941333 0 0 0 139.392 87.253334 153.088 153.088 0 0 0 123.776-61.952 18.133333 18.133333 0 0 1 29.44 0 154.368 154.368 0 0 0 123.776 61.952 153.728 153.728 0 0 0 123.776-61.952 18.133333 18.133333 0 0 1 29.44 0 154.453333 154.453333 0 0 0 123.733334 61.952 154.197333 154.197333 0 0 0 138.965333-86.4c15.232-31.189333 13.354667-68.266667-1.792-99.968l-37.76-80.042667z m-106.24 314.794667a191.445333 191.445333 0 0 1-121.984-43.392 20.48 20.48 0 0 0-26.197333 0 191.488 191.488 0 0 1-121.941334 43.392 191.445333 191.445333 0 0 1-121.941333-43.392 20.48 20.48 0 0 0-26.197333 0 191.488 191.488 0 0 1-121.941334 43.392 191.872 191.872 0 0 1-74.538666-14.933334v223.445334c0 33.92 28.074667 61.525333 62.549333 61.525333h564.138667c34.517333 0 62.549333-27.605333 62.549333-61.525333v-223.402667a195.541333 195.541333 0 0 1-74.538667 14.933333zM387.029333 843.093333a19.285333 19.285333 0 0 1-19.328 18.986667h-38.656a19.285333 19.285333 0 0 1-19.328-18.986667v-152.448a19.285333 19.285333 0 0 1 19.328-18.986666h38.656c10.666667 0.042667 19.242667 8.533333 19.328 18.986666v152.448z" p-id="1715"></path></svg>