<?xml version="1.0" standalone="no"?><!DOCTYPE svg PUBLIC "-//W3C//DTD SVG 1.1//EN" "http://www.w3.org/Graphics/SVG/1.1/DTD/svg11.dtd"><svg t="1662008305554" class="icon" viewBox="0 0 1572 1024" version="1.1" xmlns="http://www.w3.org/2000/svg" p-id="1623" xmlns:xlink="http://www.w3.org/1999/xlink" width="307.03125" height="200"><path d="M805.357911 762.573272c-150.375422 0-273.066667-122.376651-273.066667-273.066667 0-150.375422 122.376651-273.066667 273.066667-273.066666 150.375422 0 273.066667 122.376651 273.066667 273.066666s-122.691244 273.066667-273.066667 273.066667z m0-514.359447c-133.072811 0-241.607373 108.219969-241.607373 241.607373s108.219969 241.607373 241.607373 241.607373 241.607373-108.219969 241.607373-241.607373-108.534562-241.607373-241.607373-241.607373zM805.357911 171.767742c-16.04424 0-29.257143-13.212903-29.257143-29.257143V102.871889c0-16.04424 13.212903-29.257143 29.257143-29.257142 16.04424 0 29.257143 13.212903 29.257143 29.257142v39.63871c0 16.04424-13.212903 29.257143-29.257143 29.257143z" p-id="1624"></path><path d="M805.357911 762.573272c-69.839631 0-139.679263-26.740399-193.160062-79.906605-106.332412-106.332412-106.332412-279.673118 0-386.00553s279.673118-106.332412 386.00553 0 106.332412 279.673118 0 386.00553c-53.166206 53.166206-123.005837 79.906605-192.845468 79.906605zM805.357911 248.528418c-61.974808 0-123.635023 23.59447-170.823963 70.468817-94.063287 94.063287-94.063287 247.270046 0 341.647926 94.063287 94.063287 247.270046 94.063287 341.647926 0 94.063287-94.063287 94.063287-247.270046 0-341.647926-47.18894-47.18894-108.849155-70.468817-170.823963-70.468817zM580.423963 264.88725c-11.325346 11.325346-29.886329 11.325346-41.211674 0l-27.998771-27.998771c-11.325346-11.325346-11.325346-29.886329 0-41.211674 11.325346-11.325346 29.886329-11.325346 41.211674 0l27.998771 27.998771c11.325346 11.325346 11.325346 29.886329 0 41.211674z" p-id="1625"></path><path d="M805.357911 762.573272c-150.375422 0-273.066667-122.376651-273.066667-273.066667 0-150.375422 122.376651-273.066667 273.066667-273.066666 150.375422 0 273.066667 122.376651 273.066667 273.066666s-122.691244 273.066667-273.066667 273.066667z m0-514.359447c-133.072811 0-241.607373 108.219969-241.607373 241.607373s108.219969 241.607373 241.607373 241.607373 241.607373-108.219969 241.607373-241.607373-108.534562-241.607373-241.607373-241.607373zM487.304455 489.821198c0 16.04424-13.212903 29.257143-29.257143 29.257143H418.408602c-16.04424 0-29.257143-13.212903-29.257143-29.257143 0-16.04424 13.212903-29.257143 29.257143-29.257143h39.63871c16.04424 0 29.257143 13.212903 29.257143 29.257143z" p-id="1626"></path><path d="M805.357911 762.573272c-69.839631 0-139.679263-26.740399-193.160062-79.906605-106.332412-106.332412-106.332412-279.673118 0-386.00553s279.673118-106.332412 386.00553 0 106.332412 279.673118 0 386.00553c-53.166206 53.166206-123.005837 79.906605-192.845468 79.906605z m-170.823963-443.576037c-94.063287 94.063287-94.063287 247.270046 0 341.647926 47.18894 47.18894 108.849155 70.468817 170.823963 70.468817 61.974808 0 123.635023-23.59447 170.823963-70.468817 94.063287-94.063287 94.063287-247.270046 0-341.647926-94.063287-94.063287-247.270046-94.063287-341.647926 0zM580.423963 714.755146c11.325346 11.325346 11.325346 29.886329 0 41.211674l-27.998771 27.998771c-11.325346 11.325346-29.886329 11.325346-41.211674 0-11.325346-11.325346-11.325346-29.886329 0-41.211674l27.998771-27.998771c11.325346-11.639939 29.886329-11.639939 41.211674 0z" p-id="1627"></path><path d="M805.357911 762.573272c-150.375422 0-273.066667-122.376651-273.066667-273.066667 0-150.375422 122.376651-273.066667 273.066667-273.066666 150.375422 0 273.066667 122.376651 273.066667 273.066666s-122.691244 273.066667-273.066667 273.066667z m0-514.359447c-133.072811 0-241.607373 108.219969-241.607373 241.607373s108.219969 241.607373 241.607373 241.607373 241.607373-108.219969 241.607373-241.607373-108.534562-241.607373-241.607373-241.607373zM805.357911 807.874654c16.04424 0 29.257143 13.212903 29.257143 29.257143v39.63871c0 16.04424-13.212903 29.257143-29.257143 29.257143-16.04424 0-29.257143-13.212903-29.257143-29.257143v-39.63871c0-16.358833 13.212903-29.257143 29.257143-29.257143z" p-id="1628"></path><path d="M805.357911 762.573272c-69.839631 0-139.679263-26.740399-193.160062-79.906605-106.332412-106.332412-106.332412-279.673118 0-386.00553s279.673118-106.332412 386.00553 0 106.332412 279.673118 0 386.00553c-53.166206 53.166206-123.005837 79.906605-192.845468 79.906605zM634.533948 660.645161c94.063287 94.063287 247.270046 94.063287 341.647926 0 94.063287-94.063287 94.063287-247.270046 0-341.647926-94.063287-94.063287-247.270046-94.063287-341.647926 0-94.063287 94.063287-94.063287 247.270046 0 341.647926zM1030.291859 714.755146c11.325346-11.325346 29.886329-11.325346 41.211674 0l27.998771 27.998771c11.325346 11.325346 11.325346 29.886329 0 41.211674-11.325346 11.325346-29.886329 11.325346-41.211674 0l-27.998771-27.998771c-11.325346-11.325346-11.325346-29.886329 0-41.211674z" p-id="1629"></path><path d="M805.357911 762.573272c-150.375422 0-273.066667-122.376651-273.066667-273.066667 0-150.375422 122.376651-273.066667 273.066667-273.066666 150.375422 0 273.066667 122.376651 273.066667 273.066666s-122.691244 273.066667-273.066667 273.066667z m0-514.359447c-133.072811 0-241.607373 108.219969-241.607373 241.607373s108.219969 241.607373 241.607373 241.607373 241.607373-108.219969 241.607373-241.607373-108.534562-241.607373-241.607373-241.607373zM1123.411367 489.821198c0-16.04424 13.212903-29.257143 29.257143-29.257143H1192.30722c16.04424 0 29.257143 13.212903 29.257143 29.257143 0 16.04424-13.212903 29.257143-29.257143 29.257143h-39.63871c-16.04424 0-29.257143-13.212903-29.257143-29.257143z" p-id="1630"></path><path d="M805.357911 762.573272c-69.839631 0-139.679263-26.740399-193.160062-79.906605-106.332412-106.332412-106.332412-279.673118 0-386.00553s279.673118-106.332412 386.00553 0 106.332412 279.673118 0 386.00553c-53.166206 53.166206-123.005837 79.906605-192.845468 79.906605zM805.357911 248.528418c-61.974808 0-123.635023 23.59447-170.823963 70.468817-94.063287 94.063287-94.063287 247.270046 0 341.647926 47.18894 47.18894 108.849155 70.468817 170.823963 70.468817 61.974808 0 123.635023-23.59447 170.823963-70.468817 94.063287-94.063287 94.063287-247.270046 0-341.647926-47.18894-47.18894-108.849155-70.468817-170.823963-70.468817zM1030.291859 264.88725c-11.325346-11.325346-11.325346-29.886329 0-41.211674l27.998771-27.998771c11.325346-11.325346 29.886329-11.325346 41.211674 0 11.325346 11.325346 11.325346 29.886329 0 41.211674l-27.998771 27.998771c-11.325346 11.325346-29.886329 11.325346-41.211674 0z" p-id="1631"></path></svg>